# xmcd
#
# Track frame offsets:
#	150
#	20155
#	31775
#	50233
#	59413
#	69068
#	78435
#	90140
#	98860
#	117490
#	127385
#	144030
#	155370
#	174250
#	182820
#	194313
#	209470
#	222195
#	233008
#	243345
#
# Disc length: 3373 seconds
#
# Revision: 1
# Processed by: cddbd v1.5PL3 Copyright (c) Steve Scherf et al.
# Submitted via: CDex 1.50Beta5
#
DISCID=110d2b14
DTITLE=Various Artist - ミニモニテレフォンリンリンリン [CD2]
DYEAR=2002
DGENRE=
TTITLE0=ターゲット〜あかい衝撃〜
TTITLE1=きらいじゃ★ブギ
TTITLE2=Let's　go! いいことあるさ
TTITLE3=イカイカ　イルカ
TTITLE4=チキンダンス
TTITLE5=かっぱなにさま？かっぱさま！
TTITLE6=公園に行きましょう
TTITLE7=ムギューだいすき
TTITLE8=でたらめな歌
TTITLE9=夢のパレード
TTITLE10=プリン賛歌
TTITLE11=だんご３兄弟
TTITLE12=およげ！たいやきくん
TTITLE13=たこやきなんぼマンボ
TTITLE14=みらいくんとゆめみちゃん
TTITLE15=すてきなきみ
TTITLE16=きゃんびー・ワンダーランド！
TTITLE17=チキ・チキ・バン・バン
TTITLE18=山口さんちのツトム君
TTITLE19=にんげんっていいな
EXTD=
EXTT0=
EXTT1=
EXTT2=
EXTT3=
EXTT4=
EXTT5=
EXTT6=
EXTT7=
EXTT8=
EXTT9=
EXTT10=
EXTT11=
EXTT12=
EXTT13=
EXTT14=
EXTT15=
EXTT16=
EXTT17=
EXTT18=
EXTT19=
PLAYORDER=
